<svg width="45" height="45" viewBox="0 0 45 45" fill="none" xmlns="http://www.w3.org/2000/svg">
<path d="M22.2996 17.4498C25.6196 17.4902 28.216 18.4059 30.4435 20.2239C31.8198 21.3416 32.061 22.998 30.9969 24.1427C29.9186 25.3008 28.1451 25.3547 26.7972 24.2639C23.9454 21.9476 20.0862 22.217 17.8871 24.8834C15.9717 27.2131 16.1987 30.4181 18.4404 32.492C20.6821 34.5793 24.144 34.7005 26.5702 32.7883C26.8965 32.5324 27.1945 32.2361 27.5492 32.0611C28.7977 31.4281 30.4293 31.8321 31.2239 32.9229C32.0326 34.0406 31.834 35.4816 30.6564 36.4377C27.6769 38.8886 24.2291 39.8717 20.3416 39.131C14.865 38.1076 10.9916 33.7578 10.8639 28.5867C10.7362 23.5232 14.567 18.9446 19.9727 17.7461C20.8382 17.5306 21.7746 17.5037 22.2996 17.4498Z" fill="#25346A"/>
<path d="M19.1924 28.2645C19.1924 26.4735 20.6112 25.1133 22.4982 25.0999C24.4278 25.0864 25.8324 26.4735 25.804 28.3588C25.7757 30.069 24.3143 31.4965 22.555 31.51C20.6679 31.5504 19.1924 30.1094 19.1924 28.2645Z" fill="#25346A"/>
<path d="M22.7678 5.625C28.4572 5.73273 33.5791 7.34873 37.8923 10.9712C38.9139 11.8196 39.0274 12.6411 38.2896 13.4895C37.6086 14.284 36.587 14.3244 35.608 13.503C33.1251 11.4156 30.2166 10.0286 27.0242 9.40911C20.9801 8.25099 15.3616 9.31485 10.3674 12.9104C9.82822 13.301 9.36001 13.8127 8.74992 14.0282C7.98376 14.2975 7.2176 14.1494 6.67845 13.3952C6.05417 12.5334 6.23862 11.7658 6.96221 11.1732C7.95538 10.3518 9.01949 9.59765 10.1262 8.93778C12.68 7.42952 15.5035 6.50033 18.412 5.9078C19.8308 5.61153 21.3206 5.7058 22.7678 5.625Z" fill="#E5B910"/>
<path d="M33.2525 15.51C29.9892 12.9379 26.3145 11.7798 22.2567 11.8202C18.1989 11.7933 14.5242 12.9379 11.2609 15.51C10.2961 16.2776 10.1684 17.2068 10.9346 18.0418C11.4312 18.5804 12.4527 18.8902 13.3891 18.2438C13.6587 18.1091 13.9425 17.934 14.212 17.732C16.5531 16.0083 19.2204 15.133 22.0439 15.0791C22.1148 15.0791 22.1858 15.0791 22.2567 15.0791C22.3276 15.0791 22.3986 15.0791 22.4695 15.0791C25.3071 15.133 27.9603 16.0083 30.3014 17.732C30.5851 17.934 30.8547 18.1091 31.1243 18.2438C32.0465 18.8902 33.0822 18.5804 33.5788 18.0418C34.345 17.2068 34.2315 16.2776 33.2525 15.51Z" fill="#E5B910"/>
<path d="M22.5269 18.2699C24.726 18.1756 26.6982 18.8489 28.4859 20.0475C29.5925 20.7881 29.8479 21.7308 29.2236 22.6196C28.5284 23.6026 27.5636 23.7912 26.3718 23.0236C23.747 21.3268 21.1648 21.3537 18.54 23.0505C17.2773 23.8585 16.3408 23.67 15.6314 22.6196C15.0355 21.7577 15.3193 20.8285 16.4685 20.0609C18.2704 18.8489 20.2709 18.1352 22.5269 18.2699Z" fill="#E5B910"/>
</svg>
